<?xml version="1.0" encoding="UTF-8" standalone="no"?>
<!-- Created with Inkscape (http://www.inkscape.org/) -->

<svg
   xmlns:dc="http://purl.org/dc/elements/1.1/"
   xmlns:cc="http://creativecommons.org/ns#"
   xmlns:rdf="http://www.w3.org/1999/02/22-rdf-syntax-ns#"
   xmlns:svg="http://www.w3.org/2000/svg"
   xmlns="http://www.w3.org/2000/svg"
   version="1.1"
   width="390.11722"
   height="1024"
   id="svg2">
  <title
     id="title2984">shoe sole</title>
  <defs
     id="defs4" />
  <metadata
     id="metadata7">
    <rdf:RDF>
      <cc:Work
         rdf:about="">
        <dc:format>image/svg+xml</dc:format>
        <dc:type
           rdf:resource="http://purl.org/dc/dcmitype/StillImage" />
        <cc:license
           rdf:resource="http://creativecommons.org/publicdomain/zero/1.0/" />
        <dc:date>2014-08-30</dc:date>
        <dc:subject>
          <rdf:Bag />
        </dc:subject>
        <dc:title>shoe sole</dc:title>
        <dc:description>shoe sole</dc:description>
        <dc:creator>
          <cc:Agent>
            <dc:title>Coyau</dc:title>
          </cc:Agent>
        </dc:creator>
      </cc:Work>
      <cc:License
         rdf:about="http://creativecommons.org/publicdomain/zero/1.0/">
        <cc:permits
           rdf:resource="http://creativecommons.org/ns#Reproduction" />
        <cc:permits
           rdf:resource="http://creativecommons.org/ns#Distribution" />
        <cc:permits
           rdf:resource="http://creativecommons.org/ns#DerivativeWorks" />
      </cc:License>
    </rdf:RDF>
  </metadata>
  <path
     d="M 146.84375,0.03125 C 109.95012,0.87132005 77.804347,24.535814 60.40625,56.84375 15.67886,139.90166 5.98577,236.56291 3.375,329.65625 1.34058,402.19801 43.58049,461.62318 75.34375,522.0625 97.68771,564.57872 87.84918,613.0258 67.75,653.5625 30.56443,728.55959 -13.57902,811.11577 3.96875,897.5 c 13.82366,62.11419 48.25267,128.1125 151.875,126.4688 67.74652,0.3437 119.96317,-56.11548 139.3125,-115.8438 27.55115,-85.04608 30.14629,-176.12225 41.78125,-264.5625 8.17855,-62.16708 29.89316,-120.52663 43.78125,-181.21875 25.60704,-111.90496 -3.40287,-229.29332 -59.125,-327 C 286.49061,73.791691 234.62821,8.642448 158.4375,0.5 154.53002,0.08241078 150.66033,-0.0556538 146.84375,0.03125 z"
     id="path3277-1"
     style="fill:#000000;fill-opacity:1;stroke:none" />
</svg>
